<svg width="1600" height="290" viewBox="0 0 1600 290" fill="none" xmlns="http://www.w3.org/2000/svg">
<path d="M1600 290L1600 -0.000139876L1588.45 -0.000138867L1588.45 45.8142L1566.91 45.8142L1566.91 -0.000136984L1532.11 -0.000133942L1532.11 30.0148L1475.77 30.0148L1475.77 75.8291L1426.06 75.8291L1426.06 -0.00012467L1386.29 -0.000121193L1386.29 44.2328L1331.6 44.2328L1331.6 -0.000116412L1293.49 -0.00011308L1293.49 41.0735L1247.09 41.0735L1247.09 -0.000109024L1192.41 -0.000104244L1192.41 18.9597L1116.18 18.9597L1116.18 -9.75794e-05L1069.78 -9.35231e-05L1069.78 55.2915L1025.03 55.2915L1025.03 -8.96114e-05L990.235 -8.65691e-05L990.235 30.0149L925.609 30.0149L925.609 66.3501L864.296 66.3502L864.296 15.7975L822.868 15.7975L822.868 42.6544L786.411 42.6544L786.411 11.0586L735.041 11.0586L735.041 48.9717L658.812 48.9718L658.812 -5.75952e-05L597.502 -5.22353e-05L597.502 23.6981L546.131 23.6981L546.131 -4.77443e-05L499.731 -4.36878e-05L499.731 22.1161L430.13 22.1161L430.13 61.6113L385.392 61.6113L385.392 -3.3692e-05L345.62 -3.02151e-05L345.62 33.1748L289.276 33.1748L289.276 -2.52893e-05L261.106 -2.28266e-05L261.106 20.5359L174.939 20.5359L174.939 71.0886L135.167 71.0886L135.167 -1.18166e-05L75.5099 -6.60128e-06L75.5099 28.4365L1.77448e-05 28.4365L6.78436e-05 290L1600 290Z" fill="#341E6A"/>
<path d="M-1.31134e-05 290L0 140L11.5471 140L11.5471 185.814L33.0884 185.814L33.0884 140L67.8878 140L67.8878 170.015L124.229 170.015L124.229 215.829L173.942 215.829L173.942 140L213.711 140L213.711 184.233L268.399 184.233L268.399 140L306.511 140L306.511 181.073L352.909 181.073L352.909 140L407.593 140L407.593 158.96L483.822 158.96L483.822 140L530.22 140L530.22 195.291L574.965 195.291L574.965 140L609.765 140L609.765 170.015L674.391 170.015L674.391 206.35L735.704 206.35L735.704 155.798L777.133 155.798L777.133 182.654L813.589 182.654L813.589 151.059L864.959 151.059L864.959 188.972L941.188 188.972L941.188 140L1002.5 140L1002.5 163.698L1053.87 163.698L1053.87 140L1100.27 140L1100.27 162.116L1169.87 162.116L1169.87 201.611L1214.61 201.611L1214.61 140L1254.38 140L1254.38 173.175L1310.72 173.175L1310.72 140L1338.89 140L1338.89 160.536L1425.06 160.536L1425.06 211.089L1464.83 211.089L1464.83 140L1524.49 140L1524.49 168.436L1600 168.436L1600 290L-1.31134e-05 290Z" fill="#6ABD45"/>
</svg>
