<svg width="1600" height="72" viewBox="0 0 1600 72" fill="none" xmlns="http://www.w3.org/2000/svg">
<rect width="1600" height="24" transform="matrix(1 0 0 -1 0 24)" fill="#383D99"/>
<rect x="23.8806" y="48" width="23.8806" height="24" transform="rotate(180 23.8806 48)" fill="#383D99"/>
<rect x="47.7612" y="48" width="23.8806" height="24" transform="rotate(180 47.7612 48)" fill="#383D99"/>
<rect x="119.403" y="48" width="23.8806" height="24" transform="rotate(180 119.403 48)" fill="#383D99"/>
<rect x="167.164" y="48" width="23.8806" height="24" transform="rotate(180 167.164 48)" fill="#383D99"/>
<rect x="214.925" y="48" width="23.8806" height="24" transform="rotate(180 214.925 48)" fill="#383D99"/>
<rect x="238.806" y="48" width="23.8806" height="24" transform="rotate(180 238.806 48)" fill="#383D99"/>
<rect x="262.687" y="48" width="23.8806" height="24" transform="rotate(180 262.687 48)" fill="#383D99"/>
<rect x="334.328" y="48" width="23.8806" height="24" transform="rotate(180 334.328 48)" fill="#383D99"/>
<rect x="358.209" y="48" width="23.8806" height="24" transform="rotate(180 358.209 48)" fill="#383D99"/>
<rect x="382.09" y="48" width="23.8806" height="24" transform="rotate(180 382.09 48)" fill="#383D99"/>
<rect x="405.97" y="48" width="23.8806" height="24" transform="rotate(180 405.97 48)" fill="#383D99"/>
<rect x="453.731" y="48" width="23.8806" height="24" transform="rotate(180 453.731 48)" fill="#383D99"/>
<rect x="477.612" y="48" width="23.8806" height="24" transform="rotate(180 477.612 48)" fill="#383D99"/>
<rect x="549.254" y="48" width="23.8806" height="24" transform="rotate(180 549.254 48)" fill="#383D99"/>
<rect x="597.015" y="48" width="23.8806" height="24" transform="rotate(180 597.015 48)" fill="#383D99"/>
<rect x="620.896" y="48" width="23.8806" height="24" transform="rotate(180 620.896 48)" fill="#383D99"/>
<rect x="692.537" y="48" width="23.8806" height="24" transform="rotate(180 692.537 48)" fill="#383D99"/>
<rect x="716.418" y="48" width="23.8806" height="24" transform="rotate(180 716.418 48)" fill="#383D99"/>
<rect x="740.298" y="48" width="23.8806" height="24" transform="rotate(180 740.298 48)" fill="#383D99"/>
<rect x="788.06" y="48" width="23.8806" height="24" transform="rotate(180 788.06 48)" fill="#383D99"/>
<rect x="811.94" y="48" width="23.8806" height="24" transform="rotate(180 811.94 48)" fill="#383D99"/>
<rect x="859.702" y="48" width="23.8806" height="24" transform="rotate(180 859.702 48)" fill="#383D99"/>
<rect x="931.343" y="48" width="23.8806" height="24" transform="rotate(180 931.343 48)" fill="#383D99"/>
<rect x="955.224" y="48" width="23.8806" height="24" transform="rotate(180 955.224 48)" fill="#383D99"/>
<rect x="979.104" y="48" width="23.8806" height="24" transform="rotate(180 979.104 48)" fill="#383D99"/>
<rect x="1050.75" y="48" width="23.8806" height="24" transform="rotate(180 1050.75 48)" fill="#383D99"/>
<rect x="1098.51" y="48" width="23.8806" height="24" transform="rotate(180 1098.51 48)" fill="#383D99"/>
<rect x="1146.27" y="48" width="23.8806" height="24" transform="rotate(180 1146.27 48)" fill="#383D99"/>
<rect x="1170.15" y="48" width="23.8806" height="24" transform="rotate(180 1170.15 48)" fill="#383D99"/>
<rect x="1194.03" y="48" width="23.8806" height="24" transform="rotate(180 1194.03 48)" fill="#383D99"/>
<rect x="1241.79" y="48" width="23.8806" height="24" transform="rotate(180 1241.79 48)" fill="#383D99"/>
<rect x="1313.43" y="48" width="23.8806" height="24" transform="rotate(180 1313.43 48)" fill="#383D99"/>
<rect x="1337.31" y="48" width="23.8806" height="24" transform="rotate(180 1337.31 48)" fill="#383D99"/>
<rect x="1385.07" y="48" width="23.8806" height="24" transform="rotate(180 1385.07 48)" fill="#383D99"/>
<rect x="1432.84" y="48" width="23.8806" height="24" transform="rotate(180 1432.84 48)" fill="#383D99"/>
<rect x="1456.72" y="48" width="23.8806" height="24" transform="rotate(180 1456.72 48)" fill="#383D99"/>
<rect x="1528.36" y="48" width="23.8806" height="24" transform="rotate(180 1528.36 48)" fill="#383D99"/>
<rect x="1552.24" y="48" width="23.8806" height="24" transform="rotate(180 1552.24 48)" fill="#383D99"/>
<rect x="1600" y="48" width="23.8806" height="24" transform="rotate(180 1600 48)" fill="#383D99"/>
<rect x="525.373" y="72" width="23.8806" height="24" transform="rotate(180 525.373 72)" fill="#383D99"/>
<rect x="597.015" y="72" width="23.8806" height="24" transform="rotate(180 597.015 72)" fill="#383D99"/>
<rect x="644.776" y="72" width="23.8806" height="24" transform="rotate(180 644.776 72)" fill="#383D99"/>
<rect x="716.418" y="72" width="23.8806" height="24" transform="rotate(180 716.418 72)" fill="#383D99"/>
<rect x="764.179" y="72" width="23.8806" height="24" transform="rotate(180 764.179 72)" fill="#383D99"/>
<rect x="788.06" y="72" width="23.8806" height="24" transform="rotate(180 788.06 72)" fill="#383D99"/>
<rect x="907.463" y="72" width="23.8806" height="24" transform="rotate(180 907.463 72)" fill="#383D99"/>
<rect x="1026.87" y="72" width="23.8806" height="24" transform="rotate(180 1026.87 72)" fill="#383D99"/>
<rect x="1074.63" y="72" width="23.8806" height="24" transform="rotate(180 1074.63 72)" fill="#383D99"/>
<rect x="1098.51" y="72" width="23.8806" height="24" transform="rotate(180 1098.51 72)" fill="#383D99"/>
<rect x="1146.27" y="72" width="23.8806" height="24" transform="rotate(180 1146.27 72)" fill="#383D99"/>
<rect x="1265.67" y="72" width="23.8806" height="24" transform="rotate(180 1265.67 72)" fill="#383D99"/>
<rect x="1361.19" y="72" width="23.8806" height="24" transform="rotate(180 1361.19 72)" fill="#383D99"/>
<rect x="1480.6" y="72" width="23.8806" height="24" transform="rotate(180 1480.6 72)" fill="#383D99"/>
<rect x="1552.24" y="72" width="23.8806" height="24" transform="rotate(180 1552.24 72)" fill="#383D99"/>
<rect x="1576.12" y="72" width="23.8806" height="24" transform="rotate(180 1576.12 72)" fill="#383D99"/>
<rect x="429.851" y="72" width="23.8806" height="24" transform="rotate(180 429.851 72)" fill="#383D99"/>
<rect x="405.97" y="72" width="23.8806" height="24" transform="rotate(180 405.97 72)" fill="#383D99"/>
<rect x="286.567" y="72" width="23.8806" height="24" transform="rotate(180 286.567 72)" fill="#383D99"/>
<rect x="143.284" y="72" width="23.8806" height="24" transform="rotate(180 143.284 72)" fill="#383D99"/>
<rect x="71.6417" y="72" width="23.8806" height="24" transform="rotate(180 71.6417 72)" fill="#383D99"/>
<rect x="47.7611" y="72" width="23.8806" height="24" transform="rotate(180 47.7611 72)" fill="#383D99"/>
<rect width="23.8806" height="24" transform="matrix(1 0 0 -1 1528.36 24)" fill="#341E6A"/>
<rect width="23.8806" height="24" transform="matrix(1 0 0 -1 1408.96 24)" fill="#341E6A"/>
<rect width="23.8806" height="24" transform="matrix(1 0 0 -1 1289.55 24)" fill="#341E6A"/>
<rect width="23.8806" height="24" transform="matrix(1 0 0 -1 1265.67 24)" fill="#341E6A"/>
<rect width="23.8806" height="24" transform="matrix(1 0 0 -1 668.657 24)" fill="#341E6A"/>
<rect width="23.8806" height="24" transform="matrix(1 0 0 -1 644.776 24)" fill="#341E6A"/>
<rect width="23.8806" height="24" transform="matrix(1 0 0 -1 549.254 24)" fill="#341E6A"/>
<rect width="23.8806" height="24" transform="matrix(1 0 0 -1 382.09 24)" fill="#341E6A"/>
<rect width="23.8806" height="24" transform="matrix(1 0 0 -1 286.567 24)" fill="#341E6A"/>
<rect width="23.8806" height="24" transform="matrix(1 0 0 -1 191.045 24)" fill="#341E6A"/>
<rect width="23.8806" height="24" transform="matrix(1 0 0 -1 71.6418 24)" fill="#341E6A"/>
</svg>
