<svg width="1600" height="72" viewBox="0 0 1600 72" fill="none" xmlns="http://www.w3.org/2000/svg">
<rect width="1600" height="24" transform="matrix(-1 0 0 1 1600 48)" fill="#341E6A"/>
<rect width="23.8806" height="24" transform="matrix(-1 0 0 1 23.8806 24)" fill="#341E6A"/>
<rect width="23.8806" height="24" transform="matrix(-1 0 0 1 47.7612 24)" fill="#341E6A"/>
<rect width="23.8806" height="24" transform="matrix(-1 0 0 1 119.403 24)" fill="#341E6A"/>
<rect width="23.8806" height="24" transform="matrix(-1 0 0 1 167.164 24)" fill="#341E6A"/>
<rect width="23.8806" height="24" transform="matrix(-1 0 0 1 214.925 24)" fill="#341E6A"/>
<rect width="23.8806" height="24" transform="matrix(-1 0 0 1 238.806 24)" fill="#341E6A"/>
<rect width="23.8806" height="24" transform="matrix(-1 0 0 1 262.687 24)" fill="#341E6A"/>
<rect width="23.8806" height="24" transform="matrix(-1 0 0 1 334.328 24)" fill="#341E6A"/>
<rect width="23.8806" height="24" transform="matrix(-1 0 0 1 358.209 24)" fill="#341E6A"/>
<rect width="23.8806" height="24" transform="matrix(-1 0 0 1 382.09 24)" fill="#341E6A"/>
<rect width="23.8806" height="24" transform="matrix(-1 0 0 1 405.97 24)" fill="#341E6A"/>
<rect width="23.8806" height="24" transform="matrix(-1 0 0 1 453.731 24)" fill="#341E6A"/>
<rect width="23.8806" height="24" transform="matrix(-1 0 0 1 477.612 24)" fill="#341E6A"/>
<rect width="23.8806" height="24" transform="matrix(-1 0 0 1 549.254 24)" fill="#341E6A"/>
<rect width="23.8806" height="24" transform="matrix(-1 0 0 1 597.015 24)" fill="#341E6A"/>
<rect width="23.8806" height="24" transform="matrix(-1 0 0 1 620.896 24)" fill="#341E6A"/>
<rect width="23.8806" height="24" transform="matrix(-1 0 0 1 692.537 24)" fill="#341E6A"/>
<rect width="23.8806" height="24" transform="matrix(-1 0 0 1 716.418 24)" fill="#341E6A"/>
<rect width="23.8806" height="24" transform="matrix(-1 0 0 1 740.299 24)" fill="#341E6A"/>
<rect width="23.8806" height="24" transform="matrix(-1 0 0 1 788.06 24)" fill="#341E6A"/>
<rect width="23.8806" height="24" transform="matrix(-1 0 0 1 811.94 24)" fill="#341E6A"/>
<rect width="23.8806" height="24" transform="matrix(-1 0 0 1 859.701 24)" fill="#341E6A"/>
<rect width="23.8806" height="24" transform="matrix(-1 0 0 1 931.343 24)" fill="#341E6A"/>
<rect width="23.8806" height="24" transform="matrix(-1 0 0 1 955.224 24)" fill="#341E6A"/>
<rect width="23.8806" height="24" transform="matrix(-1 0 0 1 979.104 24)" fill="#341E6A"/>
<rect width="23.8806" height="24" transform="matrix(-1 0 0 1 1050.75 24)" fill="#341E6A"/>
<rect width="23.8806" height="24" transform="matrix(-1 0 0 1 1098.51 24)" fill="#341E6A"/>
<rect width="23.8806" height="24" transform="matrix(-1 0 0 1 1146.27 24)" fill="#341E6A"/>
<rect width="23.8806" height="24" transform="matrix(-1 0 0 1 1170.15 24)" fill="#341E6A"/>
<rect width="23.8806" height="24" transform="matrix(-1 0 0 1 1194.03 24)" fill="#341E6A"/>
<rect width="23.8806" height="24" transform="matrix(-1 0 0 1 1241.79 24)" fill="#341E6A"/>
<rect width="23.8806" height="24" transform="matrix(-1 0 0 1 1313.43 24)" fill="#341E6A"/>
<rect width="23.8806" height="24" transform="matrix(-1 0 0 1 1337.31 24)" fill="#341E6A"/>
<rect width="23.8806" height="24" transform="matrix(-1 0 0 1 1385.07 24)" fill="#341E6A"/>
<rect width="23.8806" height="24" transform="matrix(-1 0 0 1 1432.84 24)" fill="#341E6A"/>
<rect width="23.8806" height="24" transform="matrix(-1 0 0 1 1456.72 24)" fill="#341E6A"/>
<rect width="23.8806" height="24" transform="matrix(-1 0 0 1 1528.36 24)" fill="#341E6A"/>
<rect width="23.8806" height="24" transform="matrix(-1 0 0 1 1552.24 24)" fill="#341E6A"/>
<rect width="23.8806" height="24" transform="matrix(-1 0 0 1 1600 24)" fill="#341E6A"/>
<rect width="23.8806" height="24" transform="matrix(-1 0 0 1 525.373 0)" fill="#341E6A"/>
<rect width="23.8806" height="24" transform="matrix(-1 0 0 1 597.015 0)" fill="#341E6A"/>
<rect width="23.8806" height="24" transform="matrix(-1 0 0 1 644.776 0)" fill="#341E6A"/>
<rect width="23.8806" height="24" transform="matrix(-1 0 0 1 716.418 0)" fill="#341E6A"/>
<rect width="23.8806" height="24" transform="matrix(-1 0 0 1 764.179 0)" fill="#341E6A"/>
<rect width="23.8806" height="24" transform="matrix(-1 0 0 1 788.06 0)" fill="#341E6A"/>
<rect width="23.8806" height="24" transform="matrix(-1 0 0 1 907.463 0)" fill="#341E6A"/>
<rect width="23.8806" height="24" transform="matrix(-1 0 0 1 1026.87 0)" fill="#341E6A"/>
<rect width="23.8806" height="24" transform="matrix(-1 0 0 1 1074.63 0)" fill="#341E6A"/>
<rect width="23.8806" height="24" transform="matrix(-1 0 0 1 1098.51 0)" fill="#341E6A"/>
<rect width="23.8806" height="24" transform="matrix(-1 0 0 1 1146.27 0)" fill="#341E6A"/>
<rect width="23.8806" height="24" transform="matrix(-1 0 0 1 1265.67 0)" fill="#341E6A"/>
<rect width="23.8806" height="24" transform="matrix(-1 0 0 1 1361.19 0)" fill="#341E6A"/>
<rect width="23.8806" height="24" transform="matrix(-1 0 0 1 1480.6 0)" fill="#341E6A"/>
<rect width="23.8806" height="24" transform="matrix(-1 0 0 1 1552.24 0)" fill="#341E6A"/>
<rect width="23.8806" height="24" transform="matrix(-1 0 0 1 1576.12 0)" fill="#341E6A"/>
<rect width="23.8806" height="24" transform="matrix(-1 0 0 1 429.851 0)" fill="#341E6A"/>
<rect width="23.8806" height="24" transform="matrix(-1 0 0 1 405.97 0)" fill="#341E6A"/>
<rect width="23.8806" height="24" transform="matrix(-1 0 0 1 286.567 0)" fill="#341E6A"/>
<rect width="23.8806" height="24" transform="matrix(-1 0 0 1 143.284 0)" fill="#341E6A"/>
<rect width="23.8806" height="24" transform="matrix(-1 0 0 1 71.6418 0)" fill="#341E6A"/>
<rect width="23.8806" height="24" transform="matrix(-1 0 0 1 47.7612 0)" fill="#341E6A"/>
<rect width="23.8806" height="24" transform="matrix(-1 0 0 1 95.5223 48)" fill="#28194C"/>
<rect width="23.8806" height="24" transform="matrix(-1 0 0 1 214.925 48)" fill="#28194C"/>
<rect width="23.8806" height="24" transform="matrix(-1 0 0 1 334.328 48)" fill="#28194C"/>
<rect width="23.8806" height="24" transform="matrix(-1 0 0 1 358.209 48)" fill="#28194C"/>
<rect width="23.8806" height="24" transform="matrix(-1 0 0 1 955.224 48)" fill="#28194C"/>
<rect width="23.8806" height="24" transform="matrix(-1 0 0 1 979.104 48)" fill="#28194C"/>
<rect width="23.8806" height="24" transform="matrix(-1 0 0 1 1074.63 48)" fill="#28194C"/>
<rect width="23.8806" height="24" transform="matrix(-1 0 0 1 1241.79 48)" fill="#28194C"/>
<rect width="23.8806" height="24" transform="matrix(-1 0 0 1 1337.31 48)" fill="#28194C"/>
<rect width="23.8806" height="24" transform="matrix(-1 0 0 1 1432.84 48)" fill="#28194C"/>
<rect width="23.8806" height="24" transform="matrix(-1 0 0 1 1552.24 48)" fill="#28194C"/>
</svg>
